#!OML:ASF F:\VICON\USERDATA\INSTALL\rory3\rory3.ASF
:FULLY-SPECIFIED
:DEGREES
4354
root -1.98452 17.6468 0.305252 2.48138 3.39243 0.440741
lowerback -0.591409 -1.14895 -3.3353
upperback -0.742478 -1.51782 2.601
thorax -0.273961 -0.740885 4.54596
lowerneck -21.2316 -0.125013 -9.90273
upperneck 25.3977 2.18036 3.84027
head 11.6967 0.519795 3.44605
rclavicle 1.74931e-014 -4.77083e-015
rhumerus 32.2195 -38.3307 -18.0222
rradius 30.8006
rwrist 37.7541
rhand -27.6294 -5.81268
rfingers 7.12502
rthumb -1.02802 -35.7899
lclavicle 1.74931e-014 -4.77083e-015
lhumerus 33.3899 35.8561 20.8947
lradius 31.8147
lwrist -21.2512
lhand -21.3872 20.6944
lfingers 7.12502
lthumb 5.00052 50.6154
rfemur -10.1562 1.31929 12.303
rtibia 31.7534
rfoot -22.8266 -8.6158
rtoes 4.50769
lfemur -8.61043 -2.72059 -14.6215
ltibia 27.3695
lfoot -16.5107 2.94459
ltoes -20.2725
4355
root -1.98571 17.6506 0.289466 2.48365 3.37615 0.350169
lowerback -0.556588 -1.11703 -3.19692
upperback -0.742682 -1.47634 2.55866
thorax -0.302436 -0.720052 4.42453
lowerneck -21.4374 -0.187149 -9.8327
upperneck 25.3981 2.08677 3.8556
head 11.7451 0.486596 3.42929
rclavicle -7.93896e-015 1.82882e-014
rhumerus 33.6434 -37.6327 -19.3744
rradius 30.6599
rwrist 37.9208
rhand -27.5736 -5.82559
rfingers 7.12502
rthumb -0.974112 -35.8031
lclavicle -7.93896e-015 1.82882e-014
lhumerus 35.2236 34.9008 22.4196
lradius 31.4888
lwrist -21.8299
lhand -21.5908 20.8978
lfingers 7.12502
lthumb 4.80385 50.8233
rfemur -10.2304 1.38759 12.4127
rtibia 31.7309
rfoot -22.7909 -8.71145
rtoes 4.38259
lfemur -8.651 -2.74382 -14.5207
ltibia 27.3493
lfoot -16.4675 3.01022
ltoes -20.3188
4356
root -1.98782 17.6545 0.276366 2.49317 3.35548 0.266388
lowerback -0.604571 -1.1086 -3.11889
upperback -0.718935 -1.4643 2.54847
thorax -0.254463 -0.715788 4.36842
lowerneck -21.6853 -0.240719 -9.83292
upperneck 25.4108 2.0224 3.91354
head 11.8026 0.465049 3.44575
rclavicle -4.19933e-015 1.66979e-014
rhumerus 34.9258 -36.7141 -20.5706
rradius 30.6
rwrist 37.8249
rhand -27.7378 -5.93675
rfingers 7.12502
rthumb -1.1327 -35.9135
lclavicle -4.19933e-015 1.66979e-014
lhumerus 36.7552 33.9146 23.7475
lradius 31.2296
lwrist -22.0688
lhand -21.5176 20.6084
lfingers 7.12502
lthumb 4.87453 50.5324
rfemur -10.2756 1.54637 12.4996
rtibia 31.7067
rfoot -22.9138 -8.61027
rtoes 6.01131
lfemur -8.70502 -2.78215 -14.4214
ltibia 27.3329
lfoot -16.4201 3.08532
ltoes -20.4026
4357
root -1.98795 17.6568 0.26334 2.47651 3.30098 0.262911
lowerback -0.586495 -1.09401 -3.11902
upperback -0.730453 -1.44518 2.53679
thorax -0.278621 -0.7055 4.35706
lowerneck -21.8627 -0.31679 -9.97504
upperneck 25.4384 1.92894 4.10657
head 11.8509 0.434302 3.53182
rclavicle -2.45748e-014 1.90833e-014
rhumerus 36.118 -35.7069 -21.6859
rradius 30.5194
rwrist 37.8571
rhand -27.6892 -5.87008
rfingers 7.12502
rthumb -1.0857 -35.8471
lclavicle -2.45748e-014 1.90833e-014
lhumerus 37.7175 32.4523 24.4483
lradius 31.1503
lwrist -21.4279
lhand -21.5314 20.7921
lfingers 7.12502
lthumb 4.86123 50.7163
rfemur -10.2945 1.61613 12.4734
rtibia 31.6863
rfoot -22.9266 -8.38449
rtoes 7.62611
lfemur -8.72125 -2.76522 -14.4292
ltibia 27.3192
lfoot -16.3447 3.15089
ltoes -20.5947
4358
root -1.98922 17.6596 0.243346 2.49445 3.25638 0.290282
lowerback -0.531082 -1.08327 -3.1672
upperback -0.75386 -1.43197 2.50527
thorax -0.334718 -0.697115 4.35324
lowerneck -22.0189 -0.378804 -10.0369
upperneck 25.468 1.82439 4.29874
head 11.8975 0.406445 3.60237
rclavicle 1.29459e-014 -4.69132e-014
rhumerus 37.2547 -34.755 -22.887
rradius 30.4372
rwrist 38.0478
rhand -27.2419 -5.50861
rfingers 7.12502
rthumb -0.65372 -35.4874
lclavicle 1.29459e-014 -4.69132e-014
lhumerus 38.8521 31.2183 25.4846
lradius 31.029
lwrist -20.97
lhand -21.6877 20.6796
lfingers 7.12502
lthumb 4.71037 50.6072
rfemur -10.4027 1.62893 12.4445
rtibia 31.6755
rfoot -22.8303 -8.44307
rtoes 7.55561
lfemur -8.81058 -2.73458 -14.4557
ltibia 27.2973
lfoot -16.2595 3.17092
ltoes -20.6118
4359
root -1.99072 17.6644 0.222235 2.5734 3.22724 0.262104
lowerback -0.545419 -1.09374 -3.17622
upperback -0.784172 -1.44553 2.50083
thorax -0.356388 -0.70288 4.35374
lowerneck -22.094 -0.413074 -9.92104
upperneck 25.4335 1.76277 4.22778
head 11.9062 0.381734 3.54647
rclavicle -2.11209e-016 -2.38542e-015
rhumerus 38.3669 -33.7405 -24.1183
rradius 30.3118
rwrist 38.1552
rhand -27.0559 -5.26817
rfingers 7.12502
rthumb -0.474066 -35.2474
lclavicle -2.11209e-016 -2.38542e-015
lhumerus 40.1949 30.3546 27.0483
lradius 30.7949
lwrist -21.1378
lhand -21.7079 20.3525
lfingers 7.12502
lthumb 4.69083 50.2806
rfemur -10.5578 1.6768 12.4745
rtibia 31.6472
rfoot -22.7796 -8.48074
rtoes 7.88414
lfemur -8.98541 -2.64865 -14.4098
ltibia 27.2889
lfoot -16.1442 3.09349
ltoes -20.5339
4360
root -1.99153 17.669 0.205643 2.64649 3.22169 0.168298
lowerback -0.63527 -1.09992 -3.10762
upperback -0.781725 -1.45191 2.50871
thorax -0.304276 -0.707518 4.32102
lowerneck -22.2602 -0.444488 -9.74462
upperneck 25.4093 1.71339 4.09025
head 11.9372 0.359226 3.45878
rclavicle -1.0958e-014 2.62396e-014
rhumerus 39.3019 -32.6386 -25.2305
rradius 30.1899
rwrist 37.9502
rhand -27.4169 -5.4045
rfingers 7.12502
rthumb -0.822746 -35.3827
lclavicle -1.0958e-014 2.62396e-014
lhumerus 41.5213 29.5471 28.7342
lradius 30.5195
lwrist -21.6665
lhand -21.7887 19.9597
lfingers 7.12502
lthumb 4.61285 49.8895
rfemur -10.6807 1.67363 12.5715
rtibia 31.607
rfoot -22.7229 -8.48485
rtoes 8.07152
lfemur -9.13792 -2.60267 -14.2971
ltibia 27.2843
lfoot -16.068 3.03875
ltoes -20.5206
